# xmcd CD database file
# Copyright (C) 1993-1998 Ti Kan
#
# Track frame offsets:
#  150
#  7059
#  14788
#  26542
#  32393
#  37409
#  42195
#  49254
#  54469
#  66291
#  70737
#  75138
#  85154
#  94080
#  104327
#  119959
#  124095
#  129264
#  135473
#  143253
#  153968
#  163626
#  169936
#  175994
#  185293
#  193509
#  198836
#  203210
#  205167
#  213382
#  218649
#  226171
#  234767
#  240415
#  244952
#  250799
#  254688
#  260759
#  265069
#  277606
#  285824
#  289925
#
# Disc length: 4018 seconds
#
# Revision: 1
# Processed by: cddbd v1.4b41PL1 Copyright (c) Steve Scherf et al.
# Submitted via: KiC 2.1 - (C) 1996-1998 Alwin Hoogerdijk
#
DISCID=4f0fb02a
DTITLE=Various Artist - Fiddle Jam Sessions
DYEAR=1900
DGENRE=
TTITLE0=Lonnie Pierce - Sourwood Mountain
TTITLE1=Bill Long - Grey Eagle
TTITLE2=Byron Berline and Texas Shorty and Dave Frisbee - Bill Cheatham
TTITLE3=Jim Widner - East Tennessee Blues
TTITLE4=Vivian Williams and Bill Mitchell - Devil's Dream
TTITLE5=Loyd Wanzer - Jean LaTippe
TTITLE6=Byron Berline - Lost Indian
TTITLE7=Bill Mitchell - Hell Among the Yearlings
TTITLE8=Lonnie Pierce and Bud Meredith - Swinging Fiddles
TTITLE9=Dwayne Youngblood - Jack of Diamonds
TTITLE10=JC Gentle - Sally Goodin
TTITLE11=Byron Berline - Sally Johnson
TTITLE12=Bill Long - Leather Britches
TTITLE13=Byron Berline - Arkansas Traveller
TTITLE14=Lonnie Pierce - Black Mountain Rag
TTITLE15=Fay Sneed - Fort Smith
TTITLE16=Bill Long - Sally Johnson and Katy Hill
TTITLE17=Vivian Williams and Don Wiles and Jim Widner - Flop-Eared Mule
TTITLE18=Lonnie Pierce - Waltz of the Bluegrass
TTITLE19=Byron Berline - Monroe's Hornpipe
TTITLE20=Byron Berline and Texas Shorty - Apple Blossom
TTITLE21=Bill Long and Bill Mitchell - Arkansas Traveller
TTITLE22=Ora Spiva - Rye Whiskey
TTITLE23=Bill Long - Waggoner
TTITLE24=Loyd Wanzer and Don Gish - Snow Deer
TTITLE25=Ray Osborne - Turkey in the Straw
TTITLE26=Llewellyn Sexsmith - Bailey's
TTITLE27=Ora Spiva - Cluck Old Hen
TTITLE28=Bill Long - Cluck Old Hen
TTITLE29=Pete McMahan - Spotted Pony
TTITLE30=Vivian Williams and Bill Mitchell - Fisher's Hornpipe
TTITLE31=Dick Barrett - Whiskey Before Breakfast
TTITLE32=Bill Long and Ora Spiva - Eighth of January
TTITLE33=Llewellyn Sexsmith - Victory Breakdown
TTITLE34=Ray Osborne - Cacklin' Hen
TTITLE35=Bill Mitchell - Charleston Number Two
TTITLE36=Loyd Wanzer and Don Gish - Possum Up the Gum Stump
TTITLE37=Ora Spiva - Lost Indian
TTITLE38=Vivian Williams and Bill Mitchell and Bill Long - Leather Britches
TTITLE39=Bill Long - Fiddlin' Rag
TTITLE40=Pete McMahan - Hell on the Wabash
TTITLE41=Bill Long and Bill Mitchell - Sally Goodin
EXTD=
EXTT0=
EXTT1=
EXTT2=
EXTT3=
EXTT4=
EXTT5=
EXTT6=
EXTT7=
EXTT8=
EXTT9=
EXTT10=
EXTT11=
EXTT12=
EXTT13=
EXTT14=
EXTT15=
EXTT16=
EXTT17=
EXTT18=
EXTT19=
EXTT20=
EXTT21=
EXTT22=
EXTT23=
EXTT24=
EXTT25=
EXTT26=
EXTT27=
EXTT28=
EXTT29=
EXTT30=
EXTT31=
EXTT32=
EXTT33=
EXTT34=
EXTT35=
EXTT36=
EXTT37=
EXTT38=
EXTT39=
EXTT40=
EXTT41=
PLAYORDER=
